<svg width="153" height="186" viewBox="0 0 153 186" fill="none" xmlns="http://www.w3.org/2000/svg">
<g filter="url(#filter0_d_9697_2081)">
<path d="M112.166 70.338C112.166 75.058 110.868 79.306 108.272 83.082C105.755 86.858 102.057 89.8867 97.18 92.168C92.3027 94.4493 86.442 95.6687 79.598 95.826V105.266H72.282V95.59C63.1567 94.7247 55.762 91.9713 50.098 87.33C44.434 82.6887 41.3267 76.3167 40.776 68.214H68.624C68.86 71.4393 70.0793 73.642 72.282 74.822V63.258C65.438 61.37 60.01 59.6393 55.998 58.066C52.0647 56.4927 48.4853 53.8967 45.26 50.278C42.1133 46.6593 40.54 41.7427 40.54 35.528C40.54 30.4147 41.956 26.0093 44.788 22.312C47.62 18.536 51.4353 15.6253 56.234 13.58C61.0327 11.5347 66.382 10.394 72.282 10.158V0.599999H79.598V10.158C88.9593 10.7873 96.354 13.4227 101.782 18.064C107.21 22.6267 110.199 28.9593 110.75 37.062H82.548C82.2333 34.0727 81.25 32.0667 79.598 31.044V42.49C82.3513 43.2767 83.6493 43.67 83.492 43.67C89.392 45.4793 94.23 47.2887 98.006 49.098C101.861 50.8287 105.165 53.4247 107.918 56.886C110.75 60.3473 112.166 64.8313 112.166 70.338ZM68.624 34.348C68.624 36.3933 69.8433 38.124 72.282 39.54V30.1C69.8433 30.572 68.624 31.988 68.624 34.348ZM79.598 75.884C82.666 75.2547 84.2 73.6027 84.2 70.928C84.2 68.8827 82.666 67.152 79.598 65.736V75.884Z" fill="#7A40A8"/>
</g>
<defs>
<filter id="filter0_d_9697_2081" x="0.540039" y="0.599609" width="151.626" height="184.666" filterUnits="userSpaceOnUse" color-interpolation-filters="sRGB">
<feFlood flood-opacity="0" result="BackgroundImageFix"/>
<feColorMatrix in="SourceAlpha" type="matrix" values="0 0 0 0 0 0 0 0 0 0 0 0 0 0 0 0 0 0 127 0" result="hardAlpha"/>
<feOffset dy="40"/>
<feGaussianBlur stdDeviation="20"/>
<feComposite in2="hardAlpha" operator="out"/>
<feColorMatrix type="matrix" values="0 0 0 0 0 0 0 0 0 0 0 0 0 0 0 0 0 0 0.25 0"/>
<feBlend mode="normal" in2="BackgroundImageFix" result="effect1_dropShadow_9697_2081"/>
<feBlend mode="normal" in="SourceGraphic" in2="effect1_dropShadow_9697_2081" result="shape"/>
</filter>
</defs>
</svg>
