<svg width="123" height="132" viewBox="0 0 123 132" fill="none" xmlns="http://www.w3.org/2000/svg">
<g filter="url(#filter0_d_9697_2220)">
<path d="M61.5 0C49.6259 0 40 9.70054 40 21.6667C40 33.6328 50.75 43.3333 61.5 52C72.25 43.3333 83 33.6328 83 21.6667C83 9.70054 73.3741 0 61.5 0Z" fill="#E5C95F"/>
<path d="M61.5 0C49.6259 0 40 9.70054 40 21.6667C40 33.6328 50.75 43.3333 61.5 52C72.25 43.3333 83 33.6328 83 21.6667C83 9.70054 73.3741 0 61.5 0Z" fill="#47CF9D"/>
</g>
<path d="M49.6001 15.8504C49.6001 14.7734 50.4731 13.9004 51.5501 13.9004H68.4501C69.527 13.9004 70.4001 14.7734 70.4001 15.8504C70.4001 16.6994 69.8575 17.4217 69.1001 17.6894V25.6004H67.8001V17.8004H52.2001V30.8004H53.5001V26.2504C53.5001 25.8915 53.7911 25.6004 54.1501 25.6004H59.3501C59.6136 25.6004 59.8405 25.7572 59.9425 25.9826C59.1972 26.4397 58.7001 27.262 58.7001 28.2004V26.9004H54.8001V30.8004H58.7001V32.1004H51.5501C51.1911 32.1004 50.9001 31.8093 50.9001 31.4504V17.6894C50.1427 17.4217 49.6001 16.6994 49.6001 15.8504ZM51.5501 15.2004C51.1911 15.2004 50.9001 15.4914 50.9001 15.8504C50.9001 16.2094 51.1911 16.5004 51.5501 16.5004H68.4501C68.809 16.5004 69.1001 16.2094 69.1001 15.8504C69.1001 15.4914 68.809 15.2004 68.4501 15.2004H51.5501ZM54.1501 19.1004C53.7911 19.1004 53.5001 19.3914 53.5001 19.7504V23.6504C53.5001 24.0093 53.7911 24.3004 54.1501 24.3004H65.8501C66.209 24.3004 66.5001 24.0093 66.5001 23.6504V19.7504C66.5001 19.3914 66.209 19.1004 65.8501 19.1004H54.1501ZM54.8001 23.0004V20.4004H65.2001V23.0004H54.8001ZM71.7001 28.8504V32.7504C71.7001 33.8273 70.827 34.7004 69.7501 34.7004H61.9501C60.8732 34.7004 60.0001 33.8273 60.0001 32.7504V28.8504C60.0001 27.7735 60.8732 26.9004 61.9501 26.9004H69.7501C70.827 26.9004 71.7001 27.7735 71.7001 28.8504ZM69.7501 33.4004C69.7501 33.0415 70.0412 32.7504 70.4001 32.7504V31.4504C69.3232 31.4504 68.4501 32.3235 68.4501 33.4004H69.7501ZM70.4001 28.8504C70.0412 28.8504 69.7501 28.5593 69.7501 28.2004H68.4501C68.4501 29.2773 69.3232 30.1504 70.4001 30.1504V28.8504ZM61.9501 28.2004C61.9501 28.5593 61.659 28.8504 61.3001 28.8504V30.1504C62.3771 30.1504 63.2501 29.2773 63.2501 28.2004H61.9501ZM61.3001 32.7504C61.659 32.7504 61.9501 33.0415 61.9501 33.4004H63.2501C63.2501 32.3235 62.377 31.4504 61.3001 31.4504V32.7504ZM65.8501 28.8504C64.7732 28.8504 63.9001 29.7235 63.9001 30.8004C63.9001 31.8773 64.7732 32.7504 65.8501 32.7504C66.9272 32.7504 67.8001 31.8773 67.8001 30.8004C67.8001 29.7235 66.9272 28.8504 65.8501 28.8504Z" fill="white"/>
<defs>
<filter id="filter0_d_9697_2220" x="0" y="0" width="123" height="132" filterUnits="userSpaceOnUse" color-interpolation-filters="sRGB">
<feFlood flood-opacity="0" result="BackgroundImageFix"/>
<feColorMatrix in="SourceAlpha" type="matrix" values="0 0 0 0 0 0 0 0 0 0 0 0 0 0 0 0 0 0 127 0" result="hardAlpha"/>
<feOffset dy="40"/>
<feGaussianBlur stdDeviation="20"/>
<feComposite in2="hardAlpha" operator="out"/>
<feColorMatrix type="matrix" values="0 0 0 0 0 0 0 0 0 0 0 0 0 0 0 0 0 0 0.25 0"/>
<feBlend mode="normal" in2="BackgroundImageFix" result="effect1_dropShadow_9697_2220"/>
<feBlend mode="normal" in="SourceGraphic" in2="effect1_dropShadow_9697_2220" result="shape"/>
</filter>
</defs>
</svg>
